<?xml version="1.0" standalone="no"?>
<!DOCTYPE svg PUBLIC "-//W3C//DTD SVG 20010904//EN"
 "http://www.w3.org/TR/2001/REC-SVG-20010904/DTD/svg10.dtd">
<svg version="1.0" xmlns="http://www.w3.org/2000/svg"
 viewBox="0 0 2600.000000 2604.000000"
 preserveAspectRatio="xMidYMid meet">
<metadata>
Created by potrace 1.13, written by Peter Selinger 2001-2015
</metadata>
<g transform="translate(0.000000,2604.000000) scale(0.100000,-0.100000)"
fill="#000000" stroke="none">
<path d="M14405 17663 c-33 -1 -179 -7 -325 -13 -1032 -41 -1340 -53 -1840
-75 -1477 -66 -2406 -121 -2730 -161 -487 -61 -1325 -393 -2145 -850 -332
-185 -744 -436 -1044 -637 l-104 -69 -59 6 c-33 4 -94 16 -136 27 -54 15 -108
21 -182 20 -196 0 -312 -47 -620 -250 -38 -25 -62 -50 -78 -81 -27 -54 -24
-74 24 -152 65 -107 35 -186 -105 -273 -128 -79 -281 -112 -575 -125 -262 -11
-363 -22 -529 -56 -385 -77 -723 -234 -985 -457 -84 -71 -216 -223 -433 -497
-610 -770 -1002 -1383 -1125 -1758 -27 -82 -38 -140 -49 -252 -34 -343 -43
-729 -25 -1035 36 -605 155 -996 357 -1175 84 -74 94 -77 448 -105 362 -28
596 -45 640 -45 26 0 39 -11 85 -72 30 -40 104 -123 165 -186 311 -324 634
-519 1015 -613 84 -20 120 -23 300 -24 234 0 316 13 528 86 367 127 677 341
855 591 l47 66 153 6 c275 10 2901 25 2957 17 114 -17 165 -43 196 -97 11 -18
56 -20 1098 -55 l1086 -37 68 -58 c37 -32 75 -65 85 -73 16 -14 25 -7 116 83
l98 97 1069 -20 c588 -12 1128 -24 1200 -27 l131 -6 23 -79 c79 -273 294 -521
578 -667 358 -184 780 -225 1432 -138 142 20 192 31 300 68 410 143 714 492
864 991 20 65 36 124 36 132 0 18 -32 12 655 109 1271 180 2128 292 2503 327
190 18 818 96 929 115 31 6 33 4 49 -37 33 -84 135 -273 198 -368 171 -256
370 -421 578 -480 164 -47 862 -54 1099 -12 128 22 231 56 287 94 23 15 58 27
91 31 29 3 81 18 115 34 456 215 722 1036 752 2322 5 225 9 272 34 400 69 347
95 638 87 970 -8 317 -38 507 -118 745 -42 122 -85 217 -139 301 -29 46 -30
53 -30 158 0 382 -86 759 -218 952 -51 76 -146 164 -206 193 -56 26 -149 51
-191 51 -16 0 -143 25 -280 55 -805 179 -1687 335 -1894 335 -50 0 -72 9 -295
127 -373 196 -1173 596 -1456 727 -586 273 -905 395 -1105 425 -33 4 -130 27
-215 49 -802 213 -1884 359 -2965 402 -228 9 -964 11 -1130 3z m-830 -243
c1162 -26 2087 -102 2880 -236 116 -20 227 -38 248 -41 21 -3 40 -9 42 -13 3
-5 -64 -129 -148 -277 -237 -414 -327 -581 -507 -938 -181 -360 -278 -579
-342 -774 l-41 -126 -1041 0 c-1045 0 -1356 -7 -1816 -41 -113 -8 -293 -21
-400 -29 -107 -8 -368 -21 -580 -30 -212 -8 -545 -22 -740 -31 -375 -18 -980
-15 -1430 5 -221 11 -851 33 -1460 52 -190 6 -698 14 -1130 19 -805 9 -853 11
-1115 55 -95 16 -557 114 -563 120 -4 3 492 330 748 492 1502 954 2619 1531
3158 1633 29 5 191 21 360 35 1323 107 2701 152 3877 125z m4543 -355 c1004
-165 1889 -581 2382 -1121 73 -79 79 -90 64 -101 -9 -7 -154 -87 -322 -179
-204 -111 -309 -164 -317 -158 -330 242 -699 374 -1045 374 -150 0 -261 -17
-424 -66 -214 -64 -335 -145 -395 -265 -48 -96 -48 -118 -1 -444 24 -163 40
-298 37 -301 -9 -10 -634 -133 -707 -140 -65 -6 -66 -6 -138 40 -246 159 -611
285 -876 303 l-94 6 15 36 c62 149 304 627 422 834 241 421 432 689 642 904
150 153 286 248 411 288 67 20 180 17 346 -10z m-14719 -2571 c47 -26 87 -48
89 -50 2 -1 -37 -71 -86 -156 -399 -685 -654 -1311 -679 -1667 l-6 -93 -146 6
c-80 3 -291 9 -468 12 -178 4 -323 8 -323 11 0 9 120 242 205 398 466 856 875
1399 1165 1545 105 53 140 52 249 -6z m11591 -70 l45 -20 -280 -186 c-953
-632 -1638 -1150 -2001 -1512 -169 -170 -255 -283 -275 -362 l-11 -44 -66 0
c-37 0 -433 -5 -880 -11 -448 -6 -816 -9 -818 -6 -4 4 600 437 1016 729 994
696 1727 1172 1980 1285 63 28 211 60 454 98 290 45 391 54 596 52 172 -2 200
-5 240 -23z m8995 -1122 c51 -26 85 -55 124 -107 153 -205 262 -570 318 -1068
22 -194 25 -762 5 -942 -91 -821 -396 -1456 -666 -1384 -101 27 -186 123 -281
314 -139 280 -228 640 -270 1085 -24 245 -16 685 14 885 46 299 125 574 226
782 172 359 366 518 530 435z m-8367 -184 c-3 -7 -26 -76 -52 -153 l-46 -140
-183 -40 c-100 -22 -187 -39 -193 -39 -16 2 -265 156 -260 161 6 7 709 222
725 223 7 0 11 -6 9 -12z m1091 -83 c240 -127 465 -509 591 -1005 65 -258 98
-513 107 -825 27 -1021 -280 -2104 -652 -2298 -57 -29 -107 -36 -189 -26 -202
25 -386 191 -526 474 -147 298 -237 672 -292 1220 -16 165 -17 806 0 960 87
807 357 1407 690 1532 24 8 66 12 117 10 70 -3 89 -8 154 -42z"/>
</g>
</svg>
